<svg width="105" height="94" viewBox="0 0 105 94" fill="none" xmlns="http://www.w3.org/2000/svg">
<path d="M98.4228 52.2322C95.9161 57.4597 92.2954 61.5303 87.5821 64.444C82.8688 67.3577 77.3199 68.8145 70.9355 68.8145H48.333V0H70.9355C77.3628 0 82.9331 1.43542 87.625 4.28484C92.3169 7.13425 95.9161 11.162 98.4228 16.3467C100.929 21.5313 102.193 27.5087 102.193 34.2573C102.193 41.0273 100.951 47.0047 98.4228 52.2322ZM82.8474 48.7829C85.9753 45.3336 87.5393 40.5131 87.5393 34.2787C87.5393 28.0443 85.9753 23.2238 82.8474 19.7745C79.7194 16.3252 75.3275 14.6113 69.6715 14.6113H62.8158V53.9461H69.6715C75.3275 53.9461 79.7194 52.2322 82.8474 48.7829Z" fill="white"/>
<path d="M13.0688 12.2975H0V37.8994H13.0688V12.2975Z" fill="#FD367E"/>
<path d="M24.038 19.2603C12.4689 19.2603 2.74236 27.2087 0.0214844 37.9208H13.0902C15.2327 34.0859 19.3461 31.4935 24.0594 31.4935C31.0009 31.4935 36.614 37.1067 36.614 44.0481C36.614 50.9895 31.0009 56.6027 24.0594 56.6027C19.3461 56.6027 15.2541 54.0104 13.0902 50.1754V66.2864C16.3896 67.9146 20.1174 68.8359 24.0594 68.8359C37.7495 68.8359 48.8472 57.7382 48.8472 44.0481C48.8044 30.358 37.7066 19.2603 24.038 19.2603Z" fill="white"/>
<path d="M13.0645 0.0014677V12.299L44.9865 12.299V0.0014677L13.0645 0.0014677Z" fill="#FD367E"/>
<path d="M13.0688 50.1754H0V68.8359H13.0688V66.2864V50.1754Z" fill="#FFD900"/>
<path d="M55.7672 50.3682C55.2316 50.004 54.7174 49.6184 54.2247 49.2113C51.9751 48.1615 49.6399 47.1974 48.3759 44.9479C48.3544 44.9265 48.3544 44.905 48.333 44.8836V68.3002L49.897 67.379L63.5442 54.6959L62.0659 53.6675C59.7521 53.2176 57.6311 51.6751 55.7672 50.3682Z" fill="#D6F1F2"/>
<path d="M46.4691 44.5837C45.4407 43.3197 43.7482 42.9341 42.3556 42.2056C41.4558 41.7343 40.7488 41.0702 39.9133 40.5346C39.0777 40.0204 38.1565 39.699 37.3423 39.1634C36.9139 38.8849 36.5711 38.5421 36.314 38.1779L34.1501 37.171L46.3191 55.1459C46.3191 55.1459 48.7829 49.9184 48.6329 45.6121C47.7973 45.5478 47.0047 45.2479 46.4691 44.5837Z" fill="#D6F1F2"/>
<path d="M96.5801 12.426L88.2461 34.0215L89.8958 34.3858L96.4944 34.2786L96.5801 12.426Z" fill="#D6F1F2"/>
<path d="M96.4944 34.2786V55.7028L103.136 35.6712L101.679 34.5143L96.4944 34.2786Z" fill="#D6F1F2"/>
<path d="M79.1838 67.379L79.5909 67.1433L96.4946 57.5024V43.4482" fill="#D6F1F2"/>
<path d="M102.686 36.2925C103.798 36.2925 104.7 35.3909 104.7 34.2786C104.7 33.1664 103.798 32.2648 102.686 32.2648C101.574 32.2648 100.672 33.1664 100.672 34.2786C100.672 35.3909 101.574 36.2925 102.686 36.2925Z" fill="#00A8C8"/>
<path d="M79.6765 68.8359C80.7887 68.8359 81.6903 67.9343 81.6903 66.822C81.6903 65.7098 80.7887 64.8082 79.6765 64.8082C78.5642 64.8082 77.6626 65.7098 77.6626 66.822C77.6626 67.9343 78.5642 68.8359 79.6765 68.8359Z" fill="#00A8C8"/>
<path d="M96.4946 58.8951C97.6068 58.8951 98.5085 57.9934 98.5085 56.8812C98.5085 55.769 97.6068 54.8673 96.4946 54.8673C95.3824 54.8673 94.4807 55.769 94.4807 56.8812C94.4807 57.9934 95.3824 58.8951 96.4946 58.8951Z" fill="#00A8C8"/>
<path d="M89.6817 35.6712C89.3175 36.0569 88.8033 36.2711 88.2463 36.2711C87.1322 36.2711 86.2324 35.3713 86.2324 34.2572C86.2324 33.1432 87.1322 32.2433 88.2463 32.2433C89.3604 32.2433 90.2602 33.1432 90.2602 34.2572C90.2602 34.8142 90.0459 35.307 89.6817 35.6712Z" fill="#00A8C8"/>
<path d="M48.6543 47.0046C49.7665 47.0046 50.6681 46.103 50.6681 44.9907C50.6681 43.8785 49.7665 42.9769 48.6543 42.9769C47.542 42.9769 46.6404 43.8785 46.6404 44.9907C46.6404 46.103 47.542 47.0046 48.6543 47.0046Z" fill="#00A8C8"/>
<path d="M63.5441 56.5812C64.6564 56.5812 65.558 55.6796 65.558 54.5673C65.558 53.4551 64.6564 52.5535 63.5441 52.5535C62.4319 52.5535 61.5303 53.4551 61.5303 54.5673C61.5303 55.6796 62.4319 56.5812 63.5441 56.5812Z" fill="#00A8C8"/>
<path d="M49.3613 70.3141C50.4735 70.3141 51.3752 69.4125 51.3752 68.3002C51.3752 67.188 50.4735 66.2864 49.3613 66.2864C48.2491 66.2864 47.3474 67.188 47.3474 68.3002C47.3474 69.4125 48.2491 70.3141 49.3613 70.3141Z" fill="#00A8C8"/>
<path d="M34.1501 39.1848C35.2623 39.1848 36.164 38.2831 36.164 37.1709C36.164 36.0587 35.2623 35.157 34.1501 35.157C33.0379 35.157 32.1362 36.0587 32.1362 37.1709C32.1362 38.2831 33.0379 39.1848 34.1501 39.1848Z" fill="#00A8C8"/>
<path d="M24.4021 58.5737C25.5143 58.5737 26.4159 57.6721 26.4159 56.5598C26.4159 55.4476 25.5143 54.546 24.4021 54.546C23.2898 54.546 22.3882 55.4476 22.3882 56.5598C22.3882 57.6721 23.2898 58.5737 24.4021 58.5737Z" fill="#00A8C8"/>
<path d="M96.4946 13.9043C97.6068 13.9043 98.5085 13.0026 98.5085 11.8904C98.5085 10.7782 97.6068 9.87653 96.4946 9.87653C95.3824 9.87653 94.4807 10.7782 94.4807 11.8904C94.4807 13.0026 95.3824 13.9043 96.4946 13.9043Z" fill="#00A8C8"/>
<path d="M96.8477 11.2661L87.8057 34.1842L88.2441 34.3572L97.2862 11.4391L96.8477 11.2661Z" fill="#00A8C8"/>
<path d="M96.2373 58.5094V10.2621L103.5 34.4072L103.479 34.4715L96.2373 58.5094ZM96.7301 13.5186V55.2744L103.029 34.4286L96.7301 13.5186Z" fill="#00A8C8"/>
<path d="M46.4261 54.6531L34.9642 37.9422C34.6857 37.8137 34.3857 37.6637 34.1072 37.5352L45.8691 54.6959L23.7808 56.3456V69.2644L46.319 55.1244L46.7475 55.103L46.7046 54.6317L46.4261 54.6531ZM24.2735 68.4074V56.7955L45.3121 55.2101L24.2735 68.4074Z" fill="#00A8C8"/>
<path d="M37.428 39.0349L40.2345 40.406C39.3347 39.8918 38.3921 39.4419 37.428 39.0349Z" fill="#00A8C8"/>
<path d="M78.8623 67.5718L102.215 34.5143H87.3249V34.0215H103.136L102.879 34.4072L80.4905 66.0936L96.9443 56.6883L97.18 57.0954L78.8623 67.5718Z" fill="#00A8C8"/>
<path d="M96.1089 56.6455L50.154 67.8504L63.4156 55.0173C63.2442 55.0387 63.0728 55.0601 62.9014 55.0601C62.8371 55.0601 62.7514 55.0601 62.6871 55.0601L48.5686 68.7288L96.2374 57.1168L96.1089 56.6455Z" fill="#00A8C8"/>
<path d="M64.4547 54.6967L64.165 55.0685L79.5116 67.0225L79.8013 66.6506L64.4547 54.6967Z" fill="#00A8C8"/>
<path d="M33.5886 36.3567L33.3428 36.7589L63.7445 55.3391L63.9903 54.9369L33.5886 36.3567Z" fill="#00A8C8"/>
<path d="M9.55519 0H0V9.55519H9.55519V0Z" fill="#FFD900"/>
<path d="M10.9379 91.6121C10.5294 92.2928 9.91674 92.8375 9.0998 93.2459C8.30556 93.6544 7.32977 93.8586 6.17244 93.8586C4.44778 93.8586 3.01814 93.4275 1.90619 92.5879C0.794247 91.7482 0.181542 90.5682 0.0680783 89.0705H4.01662C4.0847 89.6605 4.28893 90.1143 4.62933 90.432C4.99241 90.7724 5.44627 90.9313 5.99089 90.9313C6.46744 90.9313 6.85322 90.7951 7.12553 90.5455C7.39784 90.2959 7.534 89.9328 7.534 89.5016C7.534 89.1159 7.39784 88.7755 7.14822 88.5258C6.8986 88.2762 6.58091 88.0493 6.19513 87.8904C5.80935 87.7316 5.28742 87.5274 4.62933 87.3004C3.65354 86.96 2.85929 86.6423 2.24658 86.3246C1.63388 86.0069 1.11195 85.5531 0.65809 84.9404C0.226928 84.3277 0 83.5334 0 82.535C0 81.6272 0.226928 80.833 0.703476 80.1749C1.15733 79.5168 1.81542 78.9949 2.63236 78.6318C3.4493 78.2687 4.37971 78.1099 5.44627 78.1099C7.14822 78.1099 8.50979 78.5183 9.53097 79.3353C10.5294 80.1522 11.0968 81.2642 11.2329 82.6938H7.26169C7.19361 82.1946 7.01207 81.7861 6.71706 81.4911C6.42206 81.1961 6.01359 81.0372 5.51434 81.0372C5.08318 81.0372 4.7201 81.1507 4.47048 81.3776C4.19816 81.6045 4.06201 81.9449 4.06201 82.3988C4.06201 82.7619 4.17547 83.0796 4.42509 83.3292C4.67471 83.5788 4.96972 83.7831 5.3328 83.9419C5.69589 84.1008 6.21782 84.305 6.8986 84.5546C7.87439 84.895 8.69133 85.2127 9.30404 85.5531C9.91674 85.8708 10.4614 86.3473 10.9152 86.9827C11.3691 87.5954 11.596 88.4124 11.596 89.4109C11.5506 90.1824 11.3464 90.9313 10.9379 91.6121Z" fill="white"/>
<path d="M22.5339 82.1491C23.487 82.6484 24.2359 83.3745 24.7805 84.3049C25.3251 85.258 25.5974 86.3473 25.5974 87.6181C25.5974 88.8889 25.3251 89.9781 24.7805 90.9312C24.2359 91.8843 23.487 92.5878 22.5339 93.087C21.5808 93.5863 20.5142 93.8359 19.3115 93.8359C18.1088 93.8359 17.0195 93.5863 16.0665 93.087C15.1134 92.5878 14.3645 91.8616 13.8199 90.9312C13.2752 89.9781 13.0029 88.8889 13.0029 87.6181C13.0029 86.3473 13.2752 85.258 13.8199 84.3049C14.3645 83.3518 15.1134 82.6484 16.0665 82.1491C17.0195 81.6499 18.1088 81.4003 19.3115 81.4003C20.5142 81.4003 21.5808 81.6499 22.5339 82.1491ZM17.5188 85.3942C17.0422 85.9161 16.7926 86.6423 16.7926 87.6181C16.7926 88.5939 17.0422 89.32 17.5188 89.842C17.9953 90.3412 18.608 90.6135 19.3115 90.6135C20.015 90.6135 20.6277 90.3639 21.1043 89.842C21.5808 89.3427 21.8304 88.5939 21.8304 87.6181C21.8304 86.6423 21.5808 85.8934 21.1043 85.3942C20.6277 84.8723 20.0377 84.6226 19.3115 84.6226C18.5854 84.6226 17.9953 84.8723 17.5188 85.3942Z" fill="white"/>
<path d="M31.248 77.5879V93.6771H27.5264V77.5879H31.248Z" fill="white"/>
<path d="M45.8847 81.5591V93.6998H42.1404V91.4986C41.8 92.202 41.2781 92.7694 40.5746 93.2005C39.8938 93.6317 39.0769 93.8359 38.1692 93.8359C36.7849 93.8359 35.673 93.3821 34.856 92.4517C34.0391 91.5213 33.6306 90.2505 33.6306 88.6166V81.5591H37.3295V88.14C37.3295 88.957 37.5338 89.6151 37.9649 90.0689C38.3961 90.5228 38.9634 90.7497 39.6896 90.7497C40.4384 90.7497 41.0285 90.5001 41.4823 90.0235C41.9135 89.547 42.1404 88.8662 42.1404 87.9812V81.5364H45.8847V81.5591Z" fill="white"/>
<path d="M55.3251 90.5001V93.6998H53.6458C52.2162 93.6998 51.1269 93.3594 50.3327 92.6559C49.5385 91.9524 49.1527 90.7951 49.1527 89.1612V84.7134H47.5188V81.5818H49.1527V78.6091H52.8743V81.5818H55.3024V84.7134H52.8743V89.2293C52.8743 89.7058 52.9651 90.0462 53.1693 90.2278C53.3735 90.4093 53.6912 90.5001 54.1678 90.5001H55.3251Z" fill="white"/>
<path d="M57.6623 76.7483C58.0707 76.3852 58.6154 76.2037 59.2735 76.2037C59.9315 76.2037 60.4762 76.3852 60.8846 76.7483C61.2931 77.1114 61.4973 77.5879 61.4973 78.1553C61.4973 78.6999 61.2931 79.1764 60.8846 79.5395C60.4762 79.9026 59.9315 80.0841 59.2735 80.0841C58.6154 80.0841 58.0707 79.9026 57.6623 79.5395C57.2538 79.1764 57.0496 78.6999 57.0496 78.1553C57.0496 77.5652 57.2538 77.1114 57.6623 76.7483ZM61.1343 81.5592V93.6998H57.4126V81.5592H61.1343Z" fill="white"/>
<path d="M72.5942 82.1491C73.5473 82.6484 74.2962 83.3745 74.8408 84.3049C75.3854 85.258 75.6577 86.3473 75.6577 87.6181C75.6577 88.8889 75.3854 89.9781 74.8408 90.9312C74.2962 91.8843 73.5473 92.5878 72.5942 93.087C71.6411 93.5863 70.5745 93.8359 69.3718 93.8359C68.1691 93.8359 67.0799 93.5863 66.1268 93.087C65.1737 92.5878 64.4248 91.8616 63.8802 90.9312C63.3355 89.9781 63.0632 88.8889 63.0632 87.6181C63.0632 86.3473 63.3355 85.258 63.8802 84.3049C64.4248 83.3518 65.1737 82.6484 66.1268 82.1491C67.0799 81.6499 68.1691 81.4003 69.3718 81.4003C70.5745 81.4003 71.6411 81.6499 72.5942 82.1491ZM67.5791 85.3942C67.1026 85.9161 66.8529 86.6423 66.8529 87.6181C66.8529 88.5939 67.1026 89.32 67.5791 89.842C68.0556 90.3412 68.6684 90.6135 69.3718 90.6135C70.0753 90.6135 70.688 90.3639 71.1646 89.842C71.6411 89.3427 71.8907 88.5939 71.8907 87.6181C71.8907 86.6423 71.6411 85.8934 71.1646 85.3942C70.688 84.8723 70.098 84.6226 69.3718 84.6226C68.6684 84.6226 68.0556 84.8723 67.5791 85.3942Z" fill="white"/>
<path d="M88.6154 82.8072C89.4323 83.7376 89.8408 85.0084 89.8408 86.6423V93.6998H86.1192V87.0962C86.1192 86.2792 85.9149 85.6438 85.4838 85.19C85.0526 84.7361 84.4853 84.5092 83.7818 84.5092C83.033 84.5092 82.4202 84.7588 81.9891 85.2354C81.5352 85.7119 81.331 86.3927 81.331 87.2777V93.7225H77.6094V81.5818H81.331V83.8057C81.6714 83.0795 82.1933 82.5122 82.8968 82.0811C83.5776 81.6499 84.3945 81.4457 85.3249 81.4457C86.6865 81.423 87.7757 81.8995 88.6154 82.8072Z" fill="white"/>
<path d="M100.393 82.5576C101.323 83.3292 101.891 84.3504 102.117 85.5985H98.6455C98.5547 85.0992 98.3051 84.7135 97.9647 84.4411C97.6016 84.1688 97.1705 84.01 96.6258 84.01C96.1947 84.01 95.877 84.1008 95.6727 84.2823C95.4458 84.4638 95.355 84.7135 95.355 85.0539C95.355 85.4396 95.5593 85.7119 95.9451 85.8935C96.3535 86.075 96.9662 86.2793 97.8285 86.4608C98.759 86.6877 99.5078 86.892 100.121 87.1189C100.711 87.3458 101.232 87.7089 101.664 88.2082C102.095 88.7074 102.322 89.3882 102.322 90.2505C102.322 90.954 102.14 91.5667 101.754 92.0886C101.369 92.6332 100.824 93.0417 100.121 93.3594C99.417 93.6544 98.5774 93.8133 97.6016 93.8133C95.9677 93.8133 94.6516 93.4502 93.6758 92.724C92.7 91.9978 92.0873 90.954 91.8604 89.6151H95.4458C95.5139 90.137 95.7181 90.5455 96.1039 90.8178C96.4897 91.0901 96.9889 91.2263 97.6016 91.2263C98.0328 91.2263 98.3505 91.1355 98.5547 90.9313C98.7816 90.727 98.8724 90.4774 98.8724 90.1597C98.8724 89.7286 98.6682 89.4336 98.2824 89.252C97.8739 89.0705 97.2385 88.8889 96.3308 88.6847C95.4231 88.5032 94.6969 88.2989 94.1069 88.072C93.5169 87.8451 93.0177 87.5047 92.6092 87.0281C92.178 86.5516 91.9738 85.8708 91.9738 85.0312C91.9738 83.9419 92.3823 83.0569 93.2219 82.3988C94.0389 81.718 95.2189 81.3776 96.7166 81.3776C98.237 81.4003 99.4624 81.7861 100.393 82.5576Z" fill="white"/>
</svg>
