<svg width="81" height="72" viewBox="0 0 81 72" fill="none" xmlns="http://www.w3.org/2000/svg">
<g clip-path="url(#clip0_1_263)">
<path d="M10.11 -0.00490284V9.474L34.8112 9.474V-0.00490284L10.11 -0.00490284Z" fill="#ED3B7E"/>
<path d="M7.39378 0H0V7.36514H7.39378V0Z" fill="#FDD800"/>
<path d="M10.1126 9.47888H0V29.2128H10.1126V9.47888Z" fill="#ED3B7E"/>
<path d="M10.1126 38.6587H0V53.0587H10.1126V51.0936V38.6587Z" fill="#FDD800"/>
<path d="M76.1592 40.2605C74.2196 44.2899 71.4179 47.4275 67.7708 49.6734C64.1236 51.9193 59.8299 53.0422 54.8897 53.0422H37.3999V0H54.8897C59.8631 0 64.1734 1.10642 67.8039 3.30275C71.4345 5.49908 74.2196 8.60367 76.1592 12.6C78.0989 16.5963 79.077 21.2037 79.077 26.4055C79.077 31.6238 78.0989 36.2312 76.1592 40.2605ZM64.107 37.6018C66.5274 34.9431 67.7376 31.2275 67.7376 26.422C67.7376 21.6165 66.5274 17.9009 64.107 15.2422C61.6867 12.5835 58.2882 11.2624 53.9116 11.2624H48.6066V41.5816H53.9116C58.2882 41.5816 61.6867 40.244 64.107 37.6018Z" fill="#00A7C7"/>
<path d="M43.1525 38.8073C42.738 38.5266 42.3402 38.2293 41.9589 37.9156C40.2182 37.1064 38.4112 36.3633 37.4331 34.6293C37.4165 34.6128 37.4165 34.5963 37.3999 34.5798V52.6293L38.6101 51.9192L49.1703 42.1431L48.0264 41.3504C46.2194 41.0201 44.5948 39.8312 43.1525 38.8073Z" fill="#1AC0E2"/>
<path d="M18.5839 14.8458C9.6318 14.8458 2.1054 20.9724 0 29.2293H10.1126C11.7704 26.2733 14.9533 24.2752 18.6005 24.2752C23.9718 24.2752 28.3152 28.6018 28.3152 33.9522C28.3152 39.3027 23.9718 43.6293 18.6005 43.6293C14.9533 43.6293 11.7869 41.6311 10.1126 38.6752V51.0935C12.6656 52.3486 15.5501 53.0587 18.6005 53.0587C29.1938 53.0587 37.7812 44.5045 37.7812 33.9522C37.7646 23.4 29.1772 14.8458 18.5839 14.8458Z" fill="#ED3B7E"/>
<path d="M35.9576 34.3651C35.1619 33.3908 33.8522 33.0936 32.7747 32.5321C32.0784 32.1688 31.5313 31.6569 30.8848 31.244C30.2382 30.8477 29.5254 30.6 28.8954 30.1871C28.5639 29.9725 28.2986 29.7082 28.0997 29.4275L26.4253 28.6514L35.8416 42.5064C35.8416 42.5064 37.7481 38.4771 37.632 35.1578C36.9855 35.1082 36.3721 34.8771 35.9576 34.3651Z" fill="#F06DA0"/>
<path d="M74.7169 9.578L68.2847 26.2239L69.5612 26.5046L74.6506 26.4055L74.7169 9.578Z" fill="#1AC0E2"/>
<path d="M74.6506 26.4055V42.9357L79.8064 27.4954L78.6791 26.6036L74.6506 26.4055Z" fill="#1AC0E2"/>
<path d="M61.2722 51.9358L61.5872 51.7542L74.6506 44.3064V33.4899" fill="#1AC0E2"/>
<path d="M79.4417 27.9578C80.3023 27.9578 81 27.2628 81 26.4055C81 25.5482 80.3023 24.8532 79.4417 24.8532C78.581 24.8532 77.8833 25.5482 77.8833 26.4055C77.8833 27.2628 78.581 27.9578 79.4417 27.9578Z" fill="white"/>
<path d="M61.6535 53.0587C62.5141 53.0587 63.2118 52.3637 63.2118 51.5064C63.2118 50.6491 62.5141 49.9541 61.6535 49.9541C60.7929 49.9541 60.0952 50.6491 60.0952 51.5064C60.0952 52.3637 60.7929 53.0587 61.6535 53.0587Z" fill="white"/>
<path d="M74.6506 45.3963C75.5113 45.3963 76.209 44.7014 76.209 43.844C76.209 42.9867 75.5113 42.2917 74.6506 42.2917C73.79 42.2917 73.0923 42.9867 73.0923 43.844C73.0923 44.7014 73.79 45.3963 74.6506 45.3963Z" fill="white"/>
<path d="M69.3954 27.4954C69.1136 27.7927 68.7157 27.9578 68.2847 27.9578C67.4226 27.9578 66.7264 27.2642 66.7264 26.4055C66.7264 25.5468 67.4226 24.8532 68.2847 24.8532C69.1467 24.8532 69.843 25.5468 69.843 26.4055C69.843 26.8349 69.6772 27.2147 69.3954 27.4954Z" fill="white"/>
<path d="M37.632 36.2312C38.4927 36.2312 39.1903 35.5363 39.1903 34.6789C39.1903 33.8216 38.4927 33.1266 37.632 33.1266C36.7714 33.1266 36.0737 33.8216 36.0737 34.6789C36.0737 35.5363 36.7714 36.2312 37.632 36.2312Z" fill="white"/>
<path d="M49.1703 43.5963C50.0309 43.5963 50.7286 42.9013 50.7286 42.044C50.7286 41.1867 50.0309 40.4918 49.1703 40.4918C48.3096 40.4918 47.6119 41.1867 47.6119 42.044C47.6119 42.9013 48.3096 43.5963 49.1703 43.5963Z" fill="white"/>
<path d="M38.1957 54.1982C39.0563 54.1982 39.754 53.5032 39.754 52.6459C39.754 51.7886 39.0563 51.0936 38.1957 51.0936C37.335 51.0936 36.6373 51.7886 36.6373 52.6459C36.6373 53.5032 37.335 54.1982 38.1957 54.1982Z" fill="white"/>
<path d="M26.4253 30.2037C27.2859 30.2037 27.9836 29.5087 27.9836 28.6514C27.9836 27.7941 27.2859 27.0991 26.4253 27.0991C25.5647 27.0991 24.867 27.7941 24.867 28.6514C24.867 29.5087 25.5647 30.2037 26.4253 30.2037Z" fill="white"/>
<path d="M18.8823 45.1487C19.743 45.1487 20.4406 44.4537 20.4406 43.5964C20.4406 42.7391 19.743 42.0441 18.8823 42.0441C18.0217 42.0441 17.324 42.7391 17.324 43.5964C17.324 44.4537 18.0217 45.1487 18.8823 45.1487Z" fill="white"/>
<path d="M74.6506 10.7174C75.5113 10.7174 76.209 10.0225 76.209 9.16515C76.209 8.30784 75.5113 7.61285 74.6506 7.61285C73.79 7.61285 73.0923 8.30784 73.0923 9.16515C73.0923 10.0225 73.79 10.7174 74.6506 10.7174Z" fill="white"/>
<path d="M74.9369 8.69472L67.9401 26.36L68.2794 26.4933L75.2761 8.82805L74.9369 8.69472Z" fill="white"/>
<path d="M74.4683 45.0826V7.9101L80.0882 26.5211L80.0716 26.5706L74.4683 45.0826ZM74.8496 10.4037V42.6055L79.7235 26.5376L74.8496 10.4037Z" fill="white"/>
<path d="M35.9245 42.1266L27.0553 29.2459C26.8397 29.1468 26.6077 29.0312 26.3921 28.9321L35.4935 42.1596L18.4016 43.4312V53.389L35.8416 42.4899L36.1731 42.4734L36.14 42.1101L35.9245 42.1266ZM18.7828 52.7284V43.7615L35.0624 42.5395L18.7828 52.7284Z" fill="white"/>
<path d="M28.9617 30.0716L31.1334 31.1285C30.4206 30.7321 29.7077 30.4019 28.9617 30.0716Z" fill="white"/>
<path d="M61.007 52.0844L79.0935 26.6037H67.5718V26.2239H79.8064L79.5909 26.5211L62.2835 50.9284L75.0153 43.6789L75.1977 44.0092L61.007 52.0844Z" fill="white"/>
<path d="M74.3688 43.6624L38.809 52.2991L49.0708 42.4073C48.9382 42.4239 48.8056 42.4404 48.6729 42.4404C48.6232 42.4404 48.5569 42.4404 48.5072 42.4404L37.5823 52.9762L74.4683 44.0257L74.3688 43.6624Z" fill="white"/>
<path d="M49.8771 42.1561L49.653 42.4427L61.5281 51.6569L61.7523 51.3703L49.8771 42.1561Z" fill="white"/>
<path d="M25.9766 28.0118L25.7864 28.3218L49.3111 42.6434L49.5013 42.3334L25.9766 28.0118Z" fill="white"/>
<path d="M8.0569 70.3817C7.7585 70.8771 7.31089 71.2734 6.71409 71.5706C6.13386 71.8679 5.42101 72.0165 4.57553 72.0165C3.3156 72.0165 2.27119 71.7028 1.45887 71.0917C0.646548 70.4807 0.198942 69.622 0.116052 68.5321H3.00062C3.05035 68.9615 3.19956 69.2917 3.44823 69.5229C3.71347 69.7706 4.04503 69.8862 4.4429 69.8862C4.79104 69.8862 5.07287 69.7872 5.2718 69.6055C5.47074 69.4239 5.57021 69.1596 5.57021 68.8459C5.57021 68.5651 5.47074 68.3174 5.28838 68.1358C5.10602 67.9541 4.87393 67.789 4.59211 67.6734C4.31028 67.5578 3.92899 67.4092 3.44823 67.244C2.73537 66.9963 2.15514 66.7651 1.70754 66.5339C1.25993 66.3028 0.878639 65.9725 0.54708 65.5266C0.232098 65.0807 0.0663185 64.5028 0.0663185 63.7762C0.0663185 63.1156 0.232098 62.5376 0.580236 62.0587C0.911795 61.5798 1.39256 61.2 1.98936 60.9358C2.58617 60.6716 3.26587 60.556 4.04503 60.556C5.28838 60.556 6.28306 60.8532 7.02907 61.4477C7.7585 62.0422 8.17295 62.8514 8.27242 63.8917H5.37127C5.32154 63.5284 5.18891 63.2312 4.9734 63.0165C4.75789 62.8018 4.45948 62.6862 4.09477 62.6862C3.77979 62.6862 3.51454 62.7688 3.33218 62.9339C3.13324 63.0991 3.03378 63.3468 3.03378 63.6771C3.03378 63.9413 3.11667 64.1725 3.29902 64.3541C3.48138 64.5358 3.6969 64.6844 3.96214 64.8C4.22739 64.9156 4.60868 65.0642 5.10602 65.2459C5.81888 65.4936 6.41568 65.7248 6.86329 65.9725C7.31089 66.2037 7.70877 66.5505 8.04033 67.0128C8.37189 67.4587 8.53767 68.0532 8.53767 68.7798C8.50451 69.3413 8.35531 69.8862 8.0569 70.3817Z" fill="#4EBA80"/>
<path d="M16.5283 63.4955C17.2245 63.8588 17.7716 64.3872 18.1695 65.0643C18.5673 65.7578 18.7663 66.5505 18.7663 67.4753C18.7663 68.4 18.5673 69.1927 18.1695 69.8863C17.7716 70.5799 17.2245 71.0918 16.5283 71.4551C15.832 71.8184 15.0528 72 14.1742 72C13.2956 72 12.4998 71.8184 11.8035 71.4551C11.1073 71.0918 10.5602 70.5633 10.1623 69.8863C9.76445 69.1927 9.56551 68.4 9.56551 67.4753C9.56551 66.5505 9.76445 65.7578 10.1623 65.0643C10.5602 64.3707 11.1073 63.8588 11.8035 63.4955C12.4998 63.1321 13.2956 62.9505 14.1742 62.9505C15.0528 62.9505 15.832 63.1321 16.5283 63.4955ZM12.8645 65.8569C12.5164 66.2367 12.334 66.7652 12.334 67.4753C12.334 68.1854 12.5164 68.7138 12.8645 69.0936C13.2127 69.4569 13.6603 69.6551 14.1742 69.6551C14.6881 69.6551 15.1357 69.4734 15.4838 69.0936C15.832 68.7303 16.0143 68.1854 16.0143 67.4753C16.0143 66.7652 15.832 66.2202 15.4838 65.8569C15.1357 65.4771 14.7047 65.2955 14.1742 65.2955C13.6437 65.2955 13.2127 65.4771 12.8645 65.8569Z" fill="#4EBA80"/>
<path d="M22.8942 60.1761V71.8844H20.1754V60.1761H22.8942Z" fill="#4EBA80"/>
<path d="M33.587 63.0661V71.9009H30.8516V70.2991C30.603 70.811 30.2217 71.2239 29.7077 71.5376C29.2104 71.8514 28.6136 72 27.9505 72C26.9392 72 26.1269 71.6697 25.5301 70.9927C24.9333 70.3156 24.6349 69.3908 24.6349 68.2019V63.0661H27.3371V67.8551C27.3371 68.4496 27.4863 68.9285 27.8013 69.2587C28.1163 69.589 28.5307 69.7541 29.0612 69.7541C29.6083 69.7541 30.0393 69.5725 30.3709 69.2257C30.6858 68.8789 30.8516 68.3835 30.8516 67.7395V63.0496H33.587V63.0661Z" fill="#4EBA80"/>
<path d="M40.4834 69.5725V71.901H39.2567C38.2122 71.901 37.4165 71.6533 36.8363 71.1413C36.256 70.6294 35.9742 69.7872 35.9742 68.5982V65.3615H34.7806V63.0826H35.9742V60.9193H38.693V63.0826H40.4669V65.3615H38.693V68.6478C38.693 68.9945 38.7593 69.2422 38.9085 69.3744C39.0577 69.5065 39.2898 69.5725 39.638 69.5725H40.4834Z" fill="#4EBA80"/>
<path d="M42.191 59.5652C42.4894 59.3009 42.8872 59.1688 43.368 59.1688C43.8488 59.1688 44.2466 59.3009 44.545 59.5652C44.8434 59.8294 44.9926 60.1762 44.9926 60.589C44.9926 60.9853 44.8434 61.3321 44.545 61.5963C44.2466 61.8606 43.8488 61.9927 43.368 61.9927C42.8872 61.9927 42.4894 61.8606 42.191 61.5963C41.8926 61.3321 41.7434 60.9853 41.7434 60.589C41.7434 60.1597 41.8926 59.8294 42.191 59.5652ZM44.7274 63.0661V71.9009H42.0086V63.0661H44.7274Z" fill="#4EBA80"/>
<path d="M53.0993 63.4955C53.7955 63.8588 54.3426 64.3872 54.7405 65.0643C55.1384 65.7578 55.3373 66.5505 55.3373 67.4753C55.3373 68.4 55.1384 69.1927 54.7405 69.8863C54.3426 70.5799 53.7955 71.0918 53.0993 71.4551C52.403 71.8184 51.6238 72 50.7452 72C49.8666 72 49.0708 71.8184 48.3745 71.4551C47.6783 71.0918 47.1312 70.5633 46.7333 69.8863C46.3355 69.1927 46.1365 68.4 46.1365 67.4753C46.1365 66.5505 46.3355 65.7578 46.7333 65.0643C47.1312 64.3707 47.6783 63.8588 48.3745 63.4955C49.0708 63.1321 49.8666 62.9505 50.7452 62.9505C51.6238 62.9505 52.403 63.1321 53.0993 63.4955ZM49.4355 65.8569C49.0874 66.2367 48.905 66.7652 48.905 67.4753C48.905 68.1854 49.0874 68.7138 49.4355 69.0936C49.7837 69.4569 50.2313 69.6551 50.7452 69.6551C51.2591 69.6551 51.7067 69.4734 52.0549 69.0936C52.403 68.7303 52.5854 68.1854 52.5854 67.4753C52.5854 66.7652 52.403 66.2202 52.0549 65.8569C51.7067 65.4771 51.2757 65.2955 50.7452 65.2955C50.2313 65.2955 49.7837 65.4771 49.4355 65.8569Z" fill="#4EBA80"/>
<path d="M64.8033 63.9743C65.4001 64.6514 65.6985 65.5761 65.6985 66.7651V71.9009H62.9797V67.0954C62.9797 66.5009 62.8305 66.0385 62.5156 65.7082C62.2006 65.378 61.7861 65.2128 61.2722 65.2128C60.7251 65.2128 60.2775 65.3945 59.9626 65.7413C59.631 66.0881 59.4818 66.5835 59.4818 67.2275V71.9174H56.763V63.0826H59.4818V64.7009C59.7305 64.1725 60.1118 63.7596 60.6257 63.4459C61.123 63.1321 61.7198 62.9835 62.3995 62.9835C63.3942 62.967 64.1899 63.3137 64.8033 63.9743Z" fill="#4EBA80"/>
<path d="M73.4073 63.7927C74.087 64.3541 74.5014 65.0973 74.6672 66.0055H72.1308C72.0645 65.6422 71.8821 65.3615 71.6335 65.1633C71.3682 64.9652 71.0532 64.8496 70.6554 64.8496C70.3404 64.8496 70.1083 64.9156 69.9591 65.0477C69.7933 65.1798 69.727 65.3615 69.727 65.6092C69.727 65.8899 69.8762 66.0881 70.158 66.2202C70.4564 66.3523 70.904 66.5009 71.534 66.633C72.2137 66.7982 72.7608 66.9468 73.2084 67.1119C73.6394 67.2771 74.0207 67.5413 74.3357 67.9046C74.6506 68.2679 74.8164 68.7633 74.8164 69.3908C74.8164 69.9028 74.6838 70.3486 74.402 70.7285C74.1202 71.1248 73.7223 71.422 73.2084 71.6532C72.6944 71.8679 72.0811 71.9835 71.3682 71.9835C70.1746 71.9835 69.2131 71.7193 68.5002 71.1908C67.7874 70.6624 67.3398 69.9028 67.174 68.9285H69.7933C69.843 69.3083 69.9922 69.6055 70.2741 69.8037C70.5559 70.0019 70.9206 70.1009 71.3682 70.1009C71.6832 70.1009 71.9153 70.0349 72.0645 69.8863C72.2303 69.7376 72.2966 69.556 72.2966 69.3248C72.2966 69.011 72.1474 68.7963 71.8655 68.6642C71.5671 68.5321 71.103 68.4 70.4398 68.2514C69.7767 68.1193 69.2462 67.9707 68.8152 67.8055C68.3842 67.6404 68.0195 67.3927 67.7211 67.0459C67.4061 66.6991 67.2569 66.2037 67.2569 65.5927C67.2569 64.8 67.5553 64.156 68.1687 63.6771C68.7655 63.1817 69.6275 62.934 70.7217 62.934C71.8324 62.9505 72.7276 63.2312 73.4073 63.7927Z" fill="#4EBA80"/>
</g>
<defs>
<clipPath id="clip0_1_263">
<rect width="81" height="72" fill="white"/>
</clipPath>
</defs>
</svg>
